<svg xmlns="http://www.w3.org/2000/svg" viewBox="0 0 100 100">
  <defs>
    <linearGradient id="grad" x1="0%" y1="0%" x2="100%" y2="100%">
      <stop offset="0%" style="stop-color:#00A3E0;stop-opacity:1" />
      <stop offset="100%" style="stop-color:#0088CC;stop-opacity:1" />
    </linearGradient>
  </defs>
  <rect width="100" height="100" rx="20" fill="url(#grad)"/>
  <g fill="white">
    <!-- Building icon -->
    <rect x="25" y="35" width="20" height="45" rx="2"/>
    <rect x="55" y="25" width="20" height="55" rx="2"/>
    <rect x="30" y="42" width="4" height="6" rx="1"/>
    <rect x="36" y="42" width="4" height="6" rx="1"/>
    <rect x="30" y="52" width="4" height="6" rx="1"/>
    <rect x="36" y="52" width="4" height="6" rx="1"/>
    <rect x="30" y="62" width="4" height="6" rx="1"/>
    <rect x="36" y="62" width="4" height="6" rx="1"/>
    <rect x="60" y="32" width="4" height="6" rx="1"/>
    <rect x="66" y="32" width="4" height="6" rx="1"/>
    <rect x="60" y="42" width="4" height="6" rx="1"/>
    <rect x="66" y="42" width="4" height="6" rx="1"/>
    <rect x="60" y="52" width="4" height="6" rx="1"/>
    <rect x="66" y="52" width="4" height="6" rx="1"/>
    <rect x="60" y="62" width="4" height="6" rx="1"/>
    <rect x="66" y="62" width="4" height="6" rx="1"/>
  </g>
</svg>
